# xmcd CD database file
#
# Track frame offsets:
#	180
#	17468
#	58796
#	88208
#	104764
#	128931
#
# Disc length: 1953 seconds
#
# Revision: 1
# Processed by: cddbd v1.4PL0 Copyright (c) Steve Scherf et al.
# Submitted via: CDex 1.50
#
DISCID=4f079f06
DTITLE=The D.J. Bonebrake - Skip Heller Quartet - One More Midnight
DYEAR=1900
DGENRE=Jazz
TTITLE0=Frances Farmer
TTITLE1=East Of The Sun
TTITLE2=Young, Gifted, and Red
TTITLE3=Margit
TTITLE4=My Lights
TTITLE5=As Brothers Go
EXTD=
EXTT0=
EXTT1=
EXTT2=
EXTT3=
EXTT4=
EXTT5=
PLAYORDER=
